<svg xmlns="http://www.w3.org/2000/svg" xmlns:xlink="http://www.w3.org/1999/xlink" width="500" zoomAndPan="magnify" viewBox="0 0 375 374.999991" height="500" preserveAspectRatio="xMidYMid meet" version="1.0"><defs><g/></defs><g fill="#292828" fill-opacity="1"><g transform="translate(125.656123, 215.624986)"><g><path d="M 41.683594 -46.917969 C 42.171875 -44.964844 41.875 -43.359375 40.792969 -42.101562 C 39.710938 -40.84375 38.261719 -39.953125 36.445312 -39.429688 C 34.628906 -38.90625 32.816406 -38.765625 31 -39.011719 C 29.183594 -39.257812 27.769531 -39.917969 26.757812 -41 C 25.746094 -42.085938 25.589844 -43.636719 26.289062 -45.664062 C 26.914062 -47.40625 27.039062 -48.910156 26.652344 -50.164062 C 26.269531 -51.421875 25.589844 -52.332031 24.613281 -52.886719 C 23.632812 -53.445312 22.515625 -53.480469 21.261719 -52.992188 C 20.074219 -52.574219 19.21875 -51.542969 18.695312 -49.902344 C 18.171875 -48.261719 17.945312 -46.429688 18.011719 -44.40625 C 18.082031 -42.378906 18.46875 -40.511719 19.164062 -38.800781 C 19.863281 -37.09375 20.804688 -35.921875 21.992188 -35.292969 L 29.113281 -35.292969 C 29.671875 -35.292969 30.164062 -35.085938 30.582031 -34.664062 C 31 -34.246094 31.210938 -33.757812 31.210938 -33.199219 L 31.210938 -29.742188 L 21.46875 -29.742188 C 21.398438 -27.789062 21.363281 -25.589844 21.363281 -23.144531 C 21.363281 -20.703125 21.503906 -18.449219 21.785156 -16.390625 C 22.0625 -14.332031 22.585938 -12.8125 23.355469 -11.835938 C 23.914062 -11.207031 24.523438 -10.699219 25.1875 -10.316406 C 25.851562 -9.933594 26.113281 -9.25 25.972656 -8.273438 C 25.832031 -7.226562 24.996094 -6.441406 23.460938 -5.917969 C 21.921875 -5.394531 20.210938 -5.042969 18.328125 -4.871094 C 16.441406 -4.695312 14.800781 -4.609375 13.40625 -4.609375 C 12.359375 -4.609375 11.117188 -4.660156 9.6875 -4.765625 C 8.257812 -4.871094 6.808594 -5.042969 5.339844 -5.289062 C 3.875 -5.535156 2.652344 -5.898438 1.675781 -6.386719 C 0.699219 -6.878906 0.140625 -7.503906 0 -8.273438 C -0.0703125 -9.113281 0.277344 -9.703125 1.046875 -10.054688 C 1.816406 -10.402344 2.480469 -10.925781 3.039062 -11.625 C 3.804688 -12.601562 4.382812 -14.105469 4.765625 -16.128906 C 5.148438 -18.152344 5.394531 -20.40625 5.5 -22.882812 C 5.601562 -25.363281 5.585938 -27.648438 5.445312 -29.742188 L 3.246094 -29.742188 C 2.6875 -29.742188 2.214844 -29.953125 1.832031 -30.371094 C 1.449219 -30.789062 1.257812 -31.246094 1.257812 -31.734375 L 1.257812 -33.199219 C 1.257812 -33.757812 1.449219 -34.246094 1.832031 -34.664062 C 2.214844 -35.085938 2.6875 -35.292969 3.246094 -35.292969 L 4.816406 -35.292969 C 4.121094 -38.4375 4.152344 -41.351562 4.921875 -44.039062 C 5.691406 -46.726562 7 -49.046875 8.851562 -51.003906 C 10.699219 -52.957031 12.863281 -54.476562 15.34375 -55.558594 C 17.820312 -56.640625 20.421875 -57.183594 23.144531 -57.183594 L 23.25 -57.183594 C 27.648438 -57.183594 31.574219 -56.34375 35.03125 -54.667969 C 38.488281 -52.992188 40.703125 -50.410156 41.683594 -46.917969 Z M 41.683594 -46.917969 "/></g></g></g><g fill="#292828" fill-opacity="1"><g transform="translate(158.118947, 215.624986)"><g><path d="M 44.929688 -40.949219 C 46.882812 -40.949219 48.613281 -40.617188 50.113281 -39.953125 C 51.613281 -39.292969 52.050781 -38.472656 51.421875 -37.492188 C 50.863281 -36.726562 49.886719 -35.921875 48.488281 -35.085938 C 47.234375 -34.246094 46.027344 -32.902344 44.875 -31.050781 C 43.726562 -29.203125 42.519531 -27.074219 41.261719 -24.664062 C 40.007812 -22.253906 38.644531 -19.847656 37.179688 -17.4375 C 35.714844 -15.027344 34.070312 -12.8125 32.257812 -10.789062 C 30.722656 -9.042969 29.011719 -7.574219 27.125 -6.386719 C 25.238281 -5.203125 23.355469 -4.609375 21.46875 -4.609375 C 20.210938 -4.609375 19.0625 -5.007812 18.011719 -5.8125 C 16.964844 -6.617188 16.269531 -7.890625 15.917969 -9.636719 C 15.289062 -13.195312 14.191406 -16.722656 12.621094 -20.210938 C 11.050781 -23.703125 9.390625 -26.757812 7.644531 -29.375 C 5.898438 -31.996094 4.398438 -33.757812 3.140625 -34.664062 C 2.445312 -35.15625 1.796875 -35.554688 1.203125 -35.871094 C 0.609375 -36.183594 0.246094 -36.65625 0.105469 -37.285156 C -0.175781 -38.332031 0.332031 -39.117188 1.625 -39.640625 C 2.914062 -40.164062 4.484375 -40.511719 6.335938 -40.6875 C 8.1875 -40.863281 9.773438 -40.949219 11.101562 -40.949219 C 12.496094 -40.949219 14.226562 -40.863281 16.285156 -40.6875 C 18.34375 -40.511719 20.265625 -40.164062 22.046875 -39.640625 C 23.824219 -39.117188 24.996094 -38.332031 25.554688 -37.285156 C 25.972656 -36.585938 26.042969 -36.0625 25.761719 -35.714844 C 25.484375 -35.363281 25.171875 -34.945312 24.820312 -34.457031 C 24.542969 -33.96875 24.59375 -33.042969 24.976562 -31.679688 C 25.363281 -30.320312 25.921875 -28.730469 26.652344 -26.914062 C 27.386719 -25.101562 28.066406 -23.285156 28.695312 -21.46875 C 29.324219 -19.65625 29.742188 -18.011719 29.953125 -16.546875 C 31.558594 -19.0625 32.832031 -21.574219 33.777344 -24.089844 C 34.71875 -26.601562 35.347656 -28.835938 35.660156 -30.789062 C 35.976562 -32.746094 35.886719 -34.175781 35.398438 -35.085938 C 34.910156 -35.992188 34.804688 -36.796875 35.085938 -37.492188 C 35.363281 -38.191406 36.042969 -38.785156 37.125 -39.273438 C 38.210938 -39.761719 39.464844 -40.164062 40.898438 -40.476562 C 42.328125 -40.792969 43.671875 -40.949219 44.929688 -40.949219 Z M 44.929688 -40.949219 "/></g></g></g><g fill="#292828" fill-opacity="1"><g transform="translate(210.478342, 215.624986)"><g><path d="M 37.074219 -34.039062 C 37.84375 -32.5 37.808594 -31.246094 36.96875 -30.265625 C 36.132812 -29.289062 34.890625 -28.609375 33.25 -28.226562 C 31.609375 -27.839844 29.902344 -27.789062 28.121094 -28.066406 C 26.339844 -28.347656 24.875 -28.957031 23.722656 -29.902344 C 22.570312 -30.84375 22.097656 -32.1875 22.308594 -33.933594 C 22.585938 -35.746094 22.289062 -36.953125 21.417969 -37.546875 C 20.542969 -38.140625 19.601562 -38.261719 18.589844 -37.914062 C 17.578125 -37.5625 16.929688 -36.828125 16.652344 -35.714844 C 16.234375 -34.039062 16.617188 -32.554688 17.804688 -31.261719 C 18.992188 -29.96875 20.578125 -28.765625 22.570312 -27.648438 C 24.558594 -26.53125 26.601562 -25.414062 28.695312 -24.296875 C 30.789062 -23.179688 32.640625 -21.957031 34.246094 -20.632812 C 35.851562 -19.304688 36.796875 -17.734375 37.074219 -15.917969 C 37.421875 -14.105469 36.796875 -12.324219 35.1875 -10.578125 C 33.582031 -8.832031 31.367188 -7.402344 28.539062 -6.285156 C 25.710938 -5.167969 22.585938 -4.609375 19.164062 -4.609375 L 18.957031 -4.609375 C 16.511719 -4.609375 14.015625 -4.851562 11.46875 -5.339844 C 8.917969 -5.828125 6.667969 -6.582031 4.710938 -7.59375 C 2.757812 -8.605469 1.363281 -9.914062 0.523438 -11.519531 C -0.246094 -13.054688 -0.210938 -14.3125 0.628906 -15.289062 C 1.464844 -16.269531 2.707031 -16.949219 4.347656 -17.332031 C 5.988281 -17.71875 7.699219 -17.769531 9.476562 -17.488281 C 11.257812 -17.210938 12.726562 -16.601562 13.875 -15.65625 C 15.027344 -14.714844 15.5 -13.371094 15.289062 -11.625 C 15.082031 -9.808594 15.378906 -8.605469 16.179688 -8.011719 C 16.984375 -7.417969 17.890625 -7.3125 18.902344 -7.699219 C 19.917969 -8.082031 20.597656 -8.796875 20.945312 -9.84375 C 21.433594 -11.519531 21.101562 -12.953125 19.949219 -14.136719 C 18.800781 -15.324219 17.210938 -16.40625 15.1875 -17.386719 C 13.160156 -18.363281 11.066406 -19.390625 8.902344 -20.476562 C 6.738281 -21.558594 4.851562 -22.796875 3.246094 -24.191406 C 1.640625 -25.589844 0.734375 -27.265625 0.523438 -29.21875 C 0.246094 -31.664062 0.890625 -33.757812 2.460938 -35.503906 C 4.03125 -37.25 6.230469 -38.59375 9.058594 -39.535156 C 11.886719 -40.476562 15.011719 -40.949219 18.433594 -40.949219 L 18.640625 -40.949219 C 21.085938 -40.949219 23.582031 -40.703125 26.128906 -40.214844 C 28.679688 -39.726562 30.949219 -38.976562 32.9375 -37.964844 C 34.925781 -36.953125 36.304688 -35.644531 37.074219 -34.039062 Z M 37.074219 -34.039062 "/></g></g></g><g fill="#292929" fill-opacity="1"><g transform="translate(199.639683, 225.203506)"><g><path d="M 0.0664062 0 L 2.300781 -5.949219 L 3.574219 -5.949219 L 5.789062 0 L 4.691406 0 L 4.230469 -1.300781 L 1.636719 -1.300781 L 1.167969 0 Z M 1.863281 -2.113281 L 3.996094 -2.113281 L 2.945312 -5.042969 L 2.929688 -5.042969 Z M 1.863281 -2.113281 "/></g></g></g><g fill="#292929" fill-opacity="1"><g transform="translate(212.177595, 225.203506)"><g><path d="M 3.289062 0.203125 C 2.847656 0.203125 2.445312 0.125 2.078125 -0.03125 C 1.710938 -0.183594 1.394531 -0.402344 1.125 -0.6875 C 0.855469 -0.972656 0.648438 -1.308594 0.5 -1.695312 C 0.351562 -2.082031 0.277344 -2.507812 0.277344 -2.972656 C 0.277344 -3.433594 0.351562 -3.863281 0.503906 -4.25 C 0.65625 -4.640625 0.867188 -4.976562 1.140625 -5.261719 C 1.414062 -5.546875 1.742188 -5.769531 2.117188 -5.925781 C 2.496094 -6.082031 2.910156 -6.160156 3.367188 -6.160156 C 3.777344 -6.160156 4.164062 -6.082031 4.523438 -5.921875 C 4.882812 -5.761719 5.1875 -5.542969 5.445312 -5.261719 C 5.703125 -4.980469 5.886719 -4.65625 6 -4.289062 L 5.027344 -4.046875 C 4.910156 -4.398438 4.695312 -4.6875 4.390625 -4.910156 C 4.082031 -5.132812 3.738281 -5.246094 3.355469 -5.246094 C 2.960938 -5.246094 2.605469 -5.148438 2.300781 -4.957031 C 1.992188 -4.761719 1.75 -4.496094 1.578125 -4.152344 C 1.402344 -3.8125 1.316406 -3.417969 1.316406 -2.972656 C 1.316406 -2.527344 1.410156 -2.132812 1.597656 -1.789062 C 1.785156 -1.441406 2.042969 -1.167969 2.371094 -0.972656 C 2.699219 -0.777344 3.074219 -0.679688 3.5 -0.679688 C 3.878906 -0.679688 4.222656 -0.761719 4.53125 -0.925781 C 4.839844 -1.09375 5.085938 -1.316406 5.265625 -1.601562 C 5.449219 -1.886719 5.542969 -2.210938 5.546875 -2.578125 L 2.59375 -2.578125 L 2.59375 -3.324219 L 6.578125 -3.324219 L 6.578125 0 L 5.773438 0 L 5.671875 -1.132812 L 5.664062 -1.132812 C 5.441406 -0.71875 5.121094 -0.394531 4.707031 -0.15625 C 4.292969 0.0820312 3.820312 0.203125 3.289062 0.203125 Z M 3.289062 0.203125 "/></g></g></g><g fill="#292929" fill-opacity="1"><g transform="translate(225.772934, 225.203506)"><g><path d="M 0.488281 0 L 0.488281 -5.949219 L 4.605469 -5.949219 L 4.605469 -5.078125 L 1.492188 -5.078125 L 1.492188 -3.457031 L 4.273438 -3.457031 L 4.273438 -2.660156 L 1.492188 -2.660156 L 1.492188 -0.871094 L 4.691406 -0.871094 L 4.691406 0 Z M 0.488281 0 "/></g></g></g><g fill="#292929" fill-opacity="1"><g transform="translate(237.337356, 225.203506)"><g><path d="M 0.488281 0 L 0.488281 -5.949219 L 1.769531 -5.949219 L 4.515625 -1.285156 L 4.53125 -1.285156 L 4.53125 -5.949219 L 5.546875 -5.949219 L 5.546875 0 L 4.261719 0 L 1.511719 -4.648438 L 1.492188 -4.648438 L 1.492188 0 Z M 0.488281 0 "/></g></g></g><g fill="#292929" fill-opacity="1"><g transform="translate(250.051513, 225.203506)"><g><path d="M 3.457031 0.210938 C 2.808594 0.210938 2.246094 0.078125 1.769531 -0.179688 C 1.296875 -0.441406 0.925781 -0.808594 0.667969 -1.289062 C 0.40625 -1.765625 0.277344 -2.328125 0.277344 -2.972656 C 0.277344 -3.621094 0.398438 -4.183594 0.640625 -4.660156 C 0.886719 -5.140625 1.234375 -5.507812 1.6875 -5.769531 C 2.140625 -6.03125 2.675781 -6.160156 3.289062 -6.160156 C 3.75 -6.160156 4.164062 -6.070312 4.53125 -5.894531 C 4.902344 -5.71875 5.207031 -5.472656 5.453125 -5.152344 C 5.699219 -4.832031 5.863281 -4.457031 5.941406 -4.019531 L 4.96875 -3.777344 C 4.890625 -4.230469 4.699219 -4.585938 4.402344 -4.851562 C 4.101562 -5.113281 3.730469 -5.246094 3.289062 -5.246094 C 2.886719 -5.246094 2.539062 -5.152344 2.246094 -4.96875 C 1.953125 -4.785156 1.722656 -4.519531 1.5625 -4.179688 C 1.398438 -3.839844 1.316406 -3.433594 1.316406 -2.972656 C 1.324219 -2.511719 1.414062 -2.113281 1.585938 -1.769531 C 1.757812 -1.429688 2.007812 -1.164062 2.328125 -0.976562 C 2.652344 -0.789062 3.03125 -0.695312 3.464844 -0.695312 C 3.820312 -0.695312 4.136719 -0.769531 4.417969 -0.914062 C 4.699219 -1.058594 4.933594 -1.265625 5.113281 -1.527344 C 5.296875 -1.789062 5.414062 -2.097656 5.464844 -2.449219 L 6.453125 -2.273438 C 6.386719 -1.769531 6.21875 -1.332031 5.949219 -0.960938 C 5.679688 -0.589844 5.335938 -0.300781 4.910156 -0.0976562 C 4.484375 0.109375 4 0.210938 3.457031 0.210938 Z M 3.457031 0.210938 "/></g></g></g><g fill="#292929" fill-opacity="1"><g transform="translate(263.336332, 225.203506)"><g><path d="M 2.183594 0 L 2.183594 -2.15625 L 0.0664062 -5.949219 L 1.183594 -5.949219 L 2.703125 -3.105469 L 2.71875 -3.105469 L 4.179688 -5.949219 L 5.320312 -5.949219 L 3.222656 -2.15625 L 3.222656 0 Z M 2.183594 0 "/></g></g></g></svg>